<svg width="221.43334655761723" height="42.10508700997723" viewBox="0 0 369.54838709677415 70.26885171090402" class="looka-1j8o68f"><defs id="SvgjsDefs1886"></defs><g id="SvgjsG1887" featurekey="PG4fjM-0" transform="matrix(0.7056451612903225,0,0,0.7056451612903225,0,0)" fill="#00adb5"><g xmlns="http://www.w3.org/2000/svg"><rect width="7.506" height="99.58"></rect><path d="M73.044,0L73.044,0l-0.008,0h-60.21v99.581h60.21h0.008V99.58C76.887,99.576,80,96.487,80,92.677V6.905   C80,3.094,76.887,0.005,73.044,0z M53.055,66.335v1.262c0,0-0.223,0.228-1,0.089l-4.357-1.484c0,0-0.826-0.183-1.283-0.135   c-0.457-0.048-1.284,0.135-1.284,0.135l-4.357,1.484c-0.775,0.139-1.001-0.089-1.001-0.089v-1.261   c-0.094-0.317,4.912-4.825,4.912-4.825c-1.135-6.935-1.364-14.904-1.364-14.904l-16.775,8.869l0.726-3.146L43.23,38.942   c0.499-9.016,1.632-11.713,1.632-11.713c0.458-0.947,1.542-0.903,1.542-0.903h0.01h0.011c0,0,1.083-0.044,1.54,0.903   c0,0,1.135,2.697,1.631,11.713l15.959,13.387l0.727,3.146l-16.774-8.869c0,0-0.228,7.97-1.362,14.904   C48.146,61.511,53.148,66.019,53.055,66.335z"></path></g></g><g id="SvgjsG1888" featurekey="jxYttZ-0" transform="matrix(2.053360413000689,0,0,2.053360413000689,72.30395086495135,4.513475126925268)" fill="#393e46"><path d="M4.02 18.16 l8.14 0 l0 1.84 l-10.36 0 l0 -15 l9.98 0 l0 1.84 l-7.76 0 l0 4.44 l6.34 0 l0 1.86 l-6.34 0 l0 5.02 z M22.5 10.12 l-3.5 4.94 l3.5 4.94 l-2.36 0 l-2.2 -3.3 l-2.22 3.3 l-2.36 0 l3.52 -4.94 l-3.52 -4.94 l2.36 0 l2.22 3.3 l2.2 -3.3 l2.36 0 z M33.72 15.08 c0 2.94 -2.12 5.12 -4.96 5.12 c-0.96 0 -2.18 -0.4 -2.84 -0.94 l0 5.84 l-2.06 0 l0 -14.98 l2.06 0 l0 0.78 c0.78 -0.6 1.88 -0.96 2.84 -0.96 c2.84 0 4.96 2.2 4.96 5.14 z M31.64 15.08 c0 -2.02 -1.38 -3.44 -3.08 -3.44 c-1.12 0 -2.1 0.5 -2.64 1.58 c-0.26 0.54 -0.42 1.18 -0.42 1.86 s0.16 1.32 0.42 1.86 c0.54 1.06 1.52 1.58 2.64 1.58 c1.7 0 3.08 -1.44 3.08 -3.44 z M38.199999999999996 4.619999999999999 l0 15.38 l-2.08 0 l0 -15.38 l2.08 0 z M45.94 11.64 c-1.7 0 -3.08 1.42 -3.08 3.44 c0 2 1.38 3.44 3.08 3.44 s3.08 -1.44 3.08 -3.44 c0 -2.02 -1.38 -3.44 -3.08 -3.44 z M45.94 9.94 c2.84 0 5.14 2.2 5.14 5.14 s-2.3 5.12 -5.14 5.12 s-5.14 -2.18 -5.14 -5.12 s2.3 -5.14 5.14 -5.14 z M59.22 10.24 l-0.44 1.62 c-0.14 -0.08 -0.58 -0.22 -0.94 -0.22 c-1.7 0 -2.5 1.62 -2.5 3.62 l0 4.74 l-2.06 0 l0 -9.88 l2.06 0 l0 1.4 c0.24 -0.92 1.3 -1.58 2.48 -1.58 c0.54 0 1.12 0.14 1.4 0.3 z M69.74 15.08 l0 0.74 l-7.78 0 c0 1.82 1.74 2.7 3.02 2.7 c0.94 0 1.98 -0.5 2.54 -1.3 l1.42 1.28 c-0.66 0.9 -1.74 1.7 -3.96 1.7 c-3.2 0 -5.16 -2.18 -5.16 -5.12 s1.9 -5.14 4.96 -5.14 s4.46 1.7 4.88 4.18 c0.06 0.32 0.08 0.64 0.08 0.96 z M62 14.120000000000001 l5.58 0 c0 -1.6 -1.28 -2.48 -2.8 -2.48 s-2.78 1.02 -2.78 2.48 z M81.22 5 l2.22 0 l0 15 l-2.22 0 l0 -6.58 l-7.06 0 l0 6.58 l-2.22 0 l0 -15 l2.22 0 l0 6.58 l7.06 0 l0 -6.58 z M95.75999999999999 15.08 l0 0.74 l-7.78 0 c0 1.82 1.74 2.7 3.02 2.7 c0.94 0 1.98 -0.5 2.54 -1.3 l1.42 1.28 c-0.66 0.9 -1.74 1.7 -3.96 1.7 c-3.2 0 -5.16 -2.18 -5.16 -5.12 s1.9 -5.14 4.96 -5.14 s4.46 1.7 4.88 4.18 c0.06 0.32 0.08 0.64 0.08 0.96 z M88.02 14.120000000000001 l5.58 0 c0 -1.6 -1.28 -2.48 -2.8 -2.48 s-2.78 1.02 -2.78 2.48 z M103.7 10.24 l-0.44 1.62 c-0.14 -0.08 -0.58 -0.22 -0.94 -0.22 c-1.7 0 -2.5 1.62 -2.5 3.62 l0 4.74 l-2.06 0 l0 -9.88 l2.06 0 l0 1.4 c0.24 -0.92 1.3 -1.58 2.48 -1.58 c0.54 0 1.12 0.14 1.4 0.3 z M110.18 20 l-1.14 0 l-5.34 -15 l2.36 0 l3.58 10.58 l3.78 -10.58 l1.14 0 l3.78 10.58 l3.58 -10.58 l2.38 0 l-5.34 15 l-1.14 0 l-3.82 -10.54 z M129.72 9.92 c2.84 0 3.98 1.72 3.98 3.18 l0 6.9 l-2.06 0 l0 -1.08 c-0.72 0.98 -2 1.26 -2.8 1.26 c-2.26 0 -3.74 -1.32 -3.74 -3.08 c0 -2.46 1.84 -3.34 3.74 -3.34 l2.8 0 l0 -0.66 c0 -0.62 -0.24 -1.48 -1.92 -1.48 c-0.94 0 -1.8 0.5 -2.36 1.28 l-1.42 -1.28 c0.94 -1.04 2.28 -1.7 3.78 -1.7 z M131.64000000000001 16.92 l0 -1.48 l-2.52 0 c-1.22 0 -2.08 0.62 -1.94 1.74 c0.12 0.94 0.88 1.32 1.94 1.32 c1.9 0 2.52 -0.9 2.52 -1.58 z M144.76000000000002 10.12 c0 0 -2.5 5.92 -4.16 9.88 c-1.4 3.32 -2.5 5.32 -4.36 5.32 c-0.58 0 -1.32 -0.28 -1.86 -0.6 l0.62 -1.8 c0.16 0.14 0.52 0.34 0.76 0.4 c1.54 0.44 2.5 -2.78 3.16 -4.36 l-3.74 -8.84 l2.08 0 l2.72 6.48 l2.7 -6.48 l2.08 0 z"></path></g></svg>